<?xml version="1.0" encoding="utf-8"?>
<!-- Generator: Adobe Illustrator 19.0.0, SVG Export Plug-In . SVG Version: 6.00 Build 0)  -->
<svg version="1.1" id="Capa_1" xmlns="http://www.w3.org/2000/svg" xmlns:xlink="http://www.w3.org/1999/xlink" x="0px" y="0px"
	 viewBox="248 -272.1 575.1 575.1" style="enable-background:new 248 -272.1 575.1 575.1;" xml:space="preserve">
<style type="text/css">
	.st0{fill:#FFFFFF;}
</style>
<g>
	<g>
		<path class="st0" d="M274.6,4.8C308.7,9.8,386.4-18.2,406.4-36c20-17.8,28.5-2.4,25.6,7.7c-2.1,7.4,2.7,12.1,5.5,14.1
			c0.9,0.7,2.5,1.6,3.3,2.3c29.6,23.6,15.3,47.7,7.7,58.1c-7.6,10.4,21.9,20.1,45.4,42.8c0.8,0.8,2.4,1.4,3.5,1.4
			c22.6-0.1,30.8,2.9,33.1,4.1c0,0,0.2,0.1,0.4,0.2c0.2,0.1-0.1,1-0.5,2c-2.7,6.9-1.3,21.7-2,27.5c-0.8,6.4-6.7,5.1-5.1,10.1
			c1.6,5.1,17,11.7,22.6,14.1c4.3,1.8,12.5-2.3,16.1-4.3c1-0.6,2.7-0.8,3.8-0.7c2.4,0.2,6.4-0.2,8.4-4.3c2.9-6.1-8.5-6.1-14.9-13.6
			c-4.8-5.6-1.2-12.8,0.9-15.9c0.6-0.9,2.1-1.5,3.2-1.3c30.8,4.7,38.3-3.6,56.6-30.7C638.7,50,640.3,88.4,660.5,58
			c20.2-30.4,35.2,6.4,31.4-16c-3.4-20.4,13.5-18.7,17.4-12.6c0.6,1,0.9,2.8,0.9,3.9c0.1,3.4-1,5.7-2,7.1c-0.6,0.9-0.5,1.2,0.5,0.7
			c21.5-10.2,10.7-26.4,21-27.4c10.7-1.1,24.5-9.1,29.3-14.9c4.8-5.9,5.3-20.8,34.1-8.5c24.4,10.4,18.9-11.1,16.7-17.8
			c-0.4-1.1,0.2-2.2,1.2-2.7c9.2-4.7,4.1-18.5,6.6-20.5c2.7-2.1,9.1-12.8,2.7-14.3c-6.4-1.5-47.4-10.2-53.3-28.9
			c-5.9-18.6-44.7-29.8-32-21.5c12.8,8.3,2.7,8.2-36.2,1.8c-38.9-6.4-9.1,6.4-22.9,5.3c-13.8-1.1-41,11.7-24,8
			c17-3.7,17.6,27.2-13.3,9.2c-30.9-18-59.7,10-47.4,3.1c12.3-6.9,39.4,0,19.7,0s-5.3,10.7-9.4,15.4c-2.5,2.9-2,5.5-1.2,7
			c0.5,1,0.4,2.1-0.6,2.6c-5.2,2.5-21,8.1-40.1-5.2c-23.4-16.3-86.6-36.2-197.4,29.1c-99.6,58.7-101.6,5.6-101-5.8
			c0.1-1.1-0.7-2.2-1.9-2.1C242.7-45.6,241.8-0.1,274.6,4.8z M562.8,42c11.2,4,2.7,10.1,0,10.7c-2.7,0.5-23.2-8-23.7-14.9
			c-0.5-6.9-4.3-13.3-4.3-13.3C540.1,28.7,551.6,38,562.8,42z M493.8,36.2c2.1-5.9,7.1-9.2,7.1-9.2s1.8,11.9-0.9,16.7
			c-2.7,4.8,2,22,18.3,20.1c16.3-2,31.1,10.8,31.1,10.8c-3.9,3.7-7.5,10.5-7.5,10.5s-1.1-16.2-22.4-15.3c-21.3,0.9-30-15.6-30-15.6
			S491.6,42,493.8,36.2z"/>
	</g>
</g>
</svg>
